<svg width="132" height="40" viewBox="0 0 132 40" fill="none" xmlns="http://www.w3.org/2000/svg">
<path d="M65.1104 23.073C64.3824 23.0751 63.6713 23.2929 63.0671 23.6988C62.4628 24.1047 61.9925 24.6805 61.7155 25.3535C61.4385 26.0264 61.3673 26.7664 61.5109 27.4798C61.6544 28.1932 62.0064 28.848 62.5222 29.3616C63.0379 29.8752 63.6945 30.2244 64.4087 30.3652C65.123 30.5059 65.863 30.4319 66.5352 30.1525C67.2075 29.873 67.7817 29.4007 68.1855 28.7951C68.5892 28.1896 68.8043 27.478 68.8036 26.7503C68.8109 26.2642 68.7202 25.7816 68.5369 25.3313C68.3537 24.8809 68.0817 24.4721 67.7371 24.129C67.3925 23.7859 66.9824 23.5155 66.5311 23.3341C66.0799 23.1527 65.5967 23.0639 65.1104 23.073ZM65.1104 28.9794C64.6622 29.0115 64.2147 28.9079 63.8263 28.6822C63.4378 28.4565 63.1263 28.119 62.9324 27.7139C62.7385 27.3087 62.6712 26.8545 62.7392 26.4106C62.8072 25.9666 63.0073 25.5534 63.3136 25.2247C63.6199 24.8961 64.0181 24.6672 64.4564 24.568C64.8946 24.4688 65.3526 24.5038 65.7707 24.6684C66.1888 24.833 66.5475 25.1197 66.8003 25.491C67.0531 25.8624 67.1881 26.3012 67.1879 26.7503C67.2012 27.0338 67.1577 27.3171 67.0599 27.5836C66.9622 27.85 66.8121 28.0943 66.6186 28.302C66.425 28.5096 66.1919 28.6765 65.9329 28.7929C65.6739 28.9092 65.3943 28.9726 65.1104 28.9794ZM57.0529 23.073C56.3248 23.0751 55.6138 23.2929 55.0095 23.6988C54.4052 24.1047 53.9349 24.6805 53.6579 25.3535C53.3809 26.0264 53.3097 26.7664 53.4533 27.4798C53.5969 28.1932 53.9488 28.848 54.4646 29.3616C54.9804 29.8752 55.6369 30.2244 56.3512 30.3652C57.0655 30.5059 57.8055 30.4319 58.4777 30.1525C59.1499 29.873 59.7242 29.4007 60.1279 28.7951C60.5317 28.1896 60.7468 27.478 60.7461 26.7503C60.7533 26.2642 60.6626 25.7816 60.4794 25.3313C60.2962 24.8809 60.0242 24.4721 59.6796 24.129C59.335 23.7859 58.9249 23.5155 58.4736 23.3341C58.0223 23.1527 57.5392 23.0639 57.0529 23.073ZM57.0529 28.9794C56.6047 29.0115 56.1572 28.9079 55.7687 28.6822C55.3802 28.4565 55.0687 28.119 54.8748 27.7139C54.6809 27.3087 54.6136 26.8545 54.6816 26.4106C54.7496 25.9666 54.9498 25.5534 55.2561 25.2247C55.5623 24.8961 55.9605 24.6672 56.3988 24.568C56.837 24.4688 57.295 24.5038 57.7131 24.6684C58.1312 24.833 58.49 25.1197 58.7428 25.491C58.9955 25.8624 59.1306 26.3012 59.1303 26.7503C59.1436 27.0338 59.1001 27.3171 59.0024 27.5836C58.9046 27.85 58.7545 28.0943 58.561 28.302C58.3675 28.5096 58.1344 28.6765 57.8754 28.7929C57.6164 28.9092 57.3367 28.9726 57.0529 28.9794ZM47.4683 24.1982V25.76H51.2041C51.1507 26.4912 50.8516 27.183 50.3554 27.7229C49.9808 28.1044 49.5303 28.4032 49.033 28.6001C48.5357 28.797 48.0027 28.8875 47.4683 28.8658C46.3879 28.8343 45.3623 28.383 44.6092 27.608C43.8562 26.833 43.4349 25.7951 43.4349 24.7147C43.4349 23.6343 43.8562 22.5964 44.6092 21.8214C45.3623 21.0464 46.3879 20.5951 47.4683 20.5636C48.5175 20.5485 49.5299 20.9492 50.2844 21.6781L51.3852 20.5778C50.8714 20.069 50.2613 19.6677 49.5907 19.3971C48.92 19.1265 48.2021 18.9921 47.479 19.0018C46.7164 18.9828 45.9577 19.1165 45.2477 19.3951C44.5376 19.6736 43.8905 20.0914 43.3444 20.6237C42.7983 21.1561 42.3644 21.7924 42.0681 22.4949C41.7718 23.1975 41.6191 23.9522 41.6191 24.7147C41.6191 25.4771 41.7718 26.2319 42.0681 26.9345C42.3644 27.637 42.7983 28.2732 43.3444 28.8056C43.8905 29.338 44.5376 29.7558 45.2477 30.0343C45.9577 30.3129 46.7164 30.4466 47.479 30.4276C48.2195 30.4583 48.9581 30.3311 49.6457 30.0545C50.3333 29.7779 50.9541 29.3581 51.4669 28.8232C52.4967 27.7939 52.8199 26.3386 52.8199 25.1744C52.8234 24.847 52.7949 24.5201 52.7347 24.1982H47.4683ZM86.6659 25.4122C86.3605 24.5887 85.4266 23.0695 83.516 23.0695C81.6055 23.0695 80.0466 24.5603 80.0466 26.7468C80.036 27.2304 80.123 27.7111 80.3024 28.1603C80.4817 28.6095 80.7497 29.0181 81.0903 29.3616C81.431 29.7051 81.8374 29.9765 82.2853 30.1596C82.7331 30.3428 83.2133 30.4339 83.6971 30.4276C84.3038 30.4306 84.9017 30.2829 85.4372 29.9979C85.9727 29.713 86.4291 29.2995 86.7653 28.7948L85.5118 27.9607C85.3233 28.2727 85.057 28.5303 84.7388 28.7082C84.4207 28.8862 84.0617 28.9784 83.6971 28.9758C83.3237 28.9885 82.955 28.8891 82.6385 28.6904C82.3221 28.4918 82.0724 28.203 81.9216 27.8613L86.8506 25.831L86.6659 25.4122ZM81.6481 26.6367C81.6333 26.3703 81.6715 26.1036 81.7604 25.8519C81.8493 25.6003 81.9872 25.3688 82.1662 25.1708C82.3452 24.9727 82.5616 24.8121 82.8031 24.6982C83.0445 24.5842 83.3062 24.5193 83.5729 24.507C83.852 24.4876 84.1307 24.551 84.3739 24.6893C84.6172 24.8276 84.8141 25.0346 84.94 25.2844L81.6481 26.6367ZM77.6495 30.1862H79.2653V19.3745H77.6495V30.1862ZM75.0004 23.8752H74.9471C74.7013 23.6078 74.4011 23.396 74.0667 23.254C73.7323 23.112 73.3714 23.043 73.0082 23.0518C72.0518 23.0815 71.1445 23.4821 70.4785 24.1688C69.8124 24.8555 69.44 25.7744 69.44 26.7308C69.44 27.6872 69.8124 28.6061 70.4785 29.2928C71.1445 29.9795 72.0518 30.3802 73.0082 30.4099C73.3729 30.4194 73.7352 30.3494 74.0701 30.2047C74.4049 30.0601 74.7042 29.8442 74.9471 29.5722H75.0004V30.1011C75.0004 31.5208 74.2475 32.2627 73.0366 32.2627C72.6324 32.2531 72.2402 32.1235 71.91 31.8902C71.5799 31.6569 71.3267 31.3306 71.1829 30.9529L69.7624 31.5386C70.0287 32.184 70.4814 32.7354 71.0627 33.1223C71.644 33.5093 72.3275 33.7142 73.0259 33.7109C74.9223 33.7109 76.5238 32.5963 76.5238 29.8774V23.2754H74.9897L75.0004 23.8752ZM73.1467 28.9581C72.8665 28.9476 72.5911 28.8819 72.3364 28.7648C72.0817 28.6477 71.8526 28.4815 71.6622 28.2758C71.4718 28.07 71.324 27.8287 71.2271 27.5658C71.1302 27.3028 71.0863 27.0233 71.0977 26.7432C71.0977 25.4477 72.0316 24.4999 73.1467 24.4999C74.2617 24.4999 75.114 25.4477 75.114 26.7432C75.114 28.0388 74.2475 28.9794 73.1467 28.9794V28.9581ZM94.2405 19.3745H90.3733V30.1862H91.9855V26.0901H94.2405C96.0161 26.0901 97.7917 24.7946 97.7917 22.7323C97.7917 20.67 96.0303 19.3958 94.2405 19.3958V19.3745ZM94.2831 24.5851H91.9855V20.8795H94.2831C94.7748 20.8795 95.2463 21.0747 95.5939 21.4222C95.9415 21.7696 96.1368 22.2409 96.1368 22.7323C96.1368 23.2237 95.9415 23.695 95.5939 24.0425C95.2463 24.3899 94.7748 24.5851 94.2831 24.5851ZM104.258 23.034C103.09 23.034 101.879 23.5487 101.378 24.6881L102.799 25.2844C102.941 25.0234 103.156 24.8095 103.418 24.6689C103.679 24.5283 103.976 24.4671 104.273 24.4928C105.107 24.4928 105.956 24.9933 105.97 25.8842V25.9943C105.451 25.72 104.873 25.5773 104.287 25.579C102.742 25.579 101.169 26.4273 101.169 28.0104C101.169 29.4586 102.437 30.3885 103.853 30.3885C104.261 30.4118 104.667 30.3253 105.029 30.1379C105.391 29.9506 105.697 29.6694 105.913 29.3237H105.97V30.1579H107.529V26.044C107.543 24.1237 106.108 23.0553 104.251 23.0553L104.258 23.034ZM104.063 28.9581C103.534 28.9581 102.799 28.6919 102.799 28.0388C102.799 27.2046 103.715 26.8852 104.51 26.8852C105.025 26.8691 105.534 26.9917 105.984 27.2401C105.931 27.7144 105.707 28.153 105.353 28.4734C104.999 28.7937 104.54 28.9737 104.063 28.9794V28.9581ZM113.218 23.2789L111.354 27.9785H111.3L109.379 23.2895H107.639L110.519 29.8419L108.878 33.4837H110.562L115.001 23.2895L113.218 23.2789ZM98.6795 30.1969H100.292V19.3851H98.6795V30.1969Z" fill="#6439FF"/>
<path d="M32.2544 18.4118C27.9433 15.9673 23.6358 13.517 19.3318 11.0608C19.3177 11.0543 19.3018 11.053 19.2868 11.0569C19.2718 11.0608 19.2586 11.0698 19.2494 11.0823C19.2402 11.0948 19.2356 11.11 19.2364 11.1255C19.2372 11.141 19.2433 11.1557 19.2536 11.1672L29.1969 21.4076C29.2028 21.4138 29.21 21.4187 29.2179 21.4221C29.2259 21.4255 29.2344 21.4272 29.243 21.4272C29.2517 21.4272 29.2602 21.4255 29.2681 21.4221C29.2761 21.4187 29.2832 21.4138 29.2892 21.4076L32.2509 18.5147C32.2586 18.5086 32.2649 18.501 32.2693 18.4922C32.2737 18.4835 32.2762 18.4739 32.2765 18.4641C32.2769 18.4543 32.2751 18.4445 32.2712 18.4355C32.2674 18.4264 32.2617 18.4183 32.2544 18.4118Z" fill="#6439FF"/>
<path d="M17.0028 31.764C16.9892 31.9734 17.0256 32.183 17.1089 32.3755C17.1923 32.5681 17.3202 32.738 17.4822 32.8715C17.495 32.8825 17.5114 32.8885 17.5283 32.8885C17.5453 32.8885 17.5617 32.8825 17.5745 32.8715L28.299 22.3933C28.3052 22.3874 28.3102 22.3802 28.3136 22.3723C28.317 22.3644 28.3187 22.3558 28.3187 22.3472C28.3187 22.3386 28.317 22.3301 28.3136 22.3222C28.3102 22.3142 28.3052 22.3071 28.299 22.3011L17.5141 11.2018C17.5078 11.1937 17.4998 11.1871 17.4905 11.1826C17.4813 11.1781 17.4712 11.1758 17.4609 11.1758C17.4506 11.1758 17.4405 11.1781 17.4312 11.1826C17.422 11.1871 17.4139 11.1937 17.4076 11.2018C17.2194 11.4743 17.1258 11.801 17.1413 12.1318C17.12 15.3855 17.0975 18.6392 17.0738 21.8929C17.0738 23.2512 17.0643 24.613 17.0454 25.9784C17.0288 27.9093 17.0146 29.8378 17.0028 31.764Z" fill="#6439FF"/>
<path d="M37.1097 21.1789C35.913 20.4974 34.7163 19.8194 33.5231 19.1344C33.5119 19.1258 33.4981 19.1211 33.484 19.1211C33.4699 19.1211 33.4561 19.1258 33.4449 19.1344L30.1921 22.3112C30.1804 22.3237 30.1738 22.3402 30.1738 22.3573C30.1738 22.3745 30.1804 22.391 30.1921 22.4035L32.9904 25.2821C33.0024 25.2905 33.0166 25.295 33.0312 25.295C33.0459 25.295 33.0601 25.2905 33.0721 25.2821C34.2866 24.6148 35.5082 23.9581 36.7298 23.2944C36.9444 23.1896 37.1519 23.071 37.3512 22.9394C37.486 22.8496 37.5974 22.7291 37.6765 22.5878C37.7555 22.4465 37.7998 22.2884 37.8058 22.1266C37.7869 21.9203 37.7121 21.7231 37.5895 21.5561C37.4668 21.3891 37.301 21.2587 37.1097 21.1789Z" fill="#6439FF"/>
<path d="M20.2345 32.2286C24.0839 30.1533 27.9345 28.0768 31.7864 25.9992C31.7944 25.9932 31.801 25.9855 31.8055 25.9766C31.81 25.9676 31.8124 25.9577 31.8124 25.9477C31.8124 25.9377 31.81 25.9278 31.8055 25.9189C31.801 25.91 31.7944 25.9022 31.7864 25.8962L29.2686 23.3051C29.2623 23.2988 29.2548 23.2938 29.2466 23.2904C29.2384 23.2869 29.2296 23.2852 29.2206 23.2852C29.2117 23.2852 29.2029 23.2869 29.1947 23.2904C29.1864 23.2938 29.179 23.2988 29.1727 23.3051L20.1421 32.1256C20.1354 32.1317 20.1299 32.139 20.1259 32.1472C20.122 32.1554 20.1197 32.1643 20.1192 32.1733C20.1187 32.1824 20.12 32.1914 20.1231 32.2C20.1261 32.2086 20.1307 32.2165 20.1368 32.2232C20.1429 32.23 20.1502 32.2355 20.1584 32.2394C20.1666 32.2433 20.1755 32.2456 20.1845 32.2461C20.1936 32.2466 20.2027 32.2453 20.2112 32.2423C20.2198 32.2393 20.2277 32.2346 20.2345 32.2286Z" fill="#6439FF"/>
<rect x="0.5" y="0.5" width="131" height="39" rx="7.5" stroke="#6439FF"/>
<path d="M44.04 15C43.9733 15 43.94 14.9667 43.94 14.9V8.1C43.94 8.03333 43.9733 8 44.04 8H46.4C47.06 8 47.5833 8.17333 47.97 8.52C48.3633 8.86667 48.56 9.33667 48.56 9.93V13.07C48.56 13.6633 48.3633 14.1333 47.97 14.48C47.5833 14.8267 47.06 15 46.4 15H44.04ZM44.65 14.34C44.65 14.3667 44.6633 14.38 44.69 14.38H46.43C46.8633 14.38 47.2067 14.2533 47.46 14C47.72 13.7467 47.85 13.4067 47.85 12.98V10.03C47.85 9.59667 47.7233 9.25333 47.47 9C47.2167 8.74667 46.87 8.62 46.43 8.62H44.69C44.6633 8.62 44.65 8.63333 44.65 8.66V14.34ZM50.4616 9.02C50.3016 9.02 50.1683 8.96667 50.0616 8.86C49.955 8.75333 49.9016 8.62 49.9016 8.46C49.9016 8.29333 49.955 8.16 50.0616 8.06C50.1683 7.95333 50.3016 7.9 50.4616 7.9C50.6216 7.9 50.755 7.95333 50.8616 8.06C50.9683 8.16 51.0216 8.29333 51.0216 8.46C51.0216 8.62 50.9683 8.75333 50.8616 8.86C50.755 8.96667 50.6216 9.02 50.4616 9.02ZM50.1816 14.99C50.115 14.99 50.0816 14.9567 50.0816 14.89V10.03C50.0816 9.96333 50.115 9.93 50.1816 9.93H50.6916C50.7583 9.93 50.7916 9.96333 50.7916 10.03V14.89C50.7916 14.9567 50.7583 14.99 50.6916 14.99H50.1816ZM54.1905 15.05C53.8171 15.05 53.4838 14.99 53.1905 14.87C52.9038 14.75 52.6805 14.59 52.5205 14.39C52.3671 14.19 52.2905 13.9667 52.2905 13.72V13.6C52.2905 13.5333 52.3238 13.5 52.3905 13.5H52.8705C52.9371 13.5 52.9705 13.5333 52.9705 13.6V13.68C52.9705 13.9 53.0838 14.0933 53.3105 14.26C53.5438 14.42 53.8338 14.5 54.1805 14.5C54.5271 14.5 54.8071 14.4233 55.0205 14.27C55.2338 14.11 55.3405 13.91 55.3405 13.67C55.3405 13.5033 55.2838 13.3667 55.1705 13.26C55.0638 13.1533 54.9338 13.07 54.7805 13.01C54.6338 12.95 54.4038 12.8733 54.0905 12.78C53.7171 12.6733 53.4105 12.5667 53.1705 12.46C52.9305 12.3533 52.7271 12.2067 52.5605 12.02C52.4005 11.8267 52.3205 11.5833 52.3205 11.29C52.3205 10.8633 52.4871 10.5233 52.8205 10.27C53.1538 10.0167 53.5938 9.89 54.1405 9.89C54.5071 9.89 54.8305 9.95 55.1105 10.07C55.3971 10.19 55.6171 10.3567 55.7705 10.57C55.9238 10.7767 56.0005 11.01 56.0005 11.27V11.3C56.0005 11.3667 55.9671 11.4 55.9005 11.4H55.4305C55.3638 11.4 55.3305 11.3667 55.3305 11.3V11.27C55.3305 11.0433 55.2205 10.8533 55.0005 10.7C54.7871 10.5467 54.4971 10.47 54.1305 10.47C53.7905 10.47 53.5171 10.54 53.3105 10.68C53.1038 10.8133 53.0005 11 53.0005 11.24C53.0005 11.4667 53.1005 11.64 53.3005 11.76C53.5005 11.88 53.8105 12 54.2305 12.12C54.6171 12.2333 54.9305 12.34 55.1705 12.44C55.4105 12.54 55.6171 12.6867 55.7905 12.88C55.9638 13.0667 56.0505 13.3133 56.0505 13.62C56.0505 14.0533 55.8805 14.4 55.5405 14.66C55.2005 14.92 54.7505 15.05 54.1905 15.05ZM61.2749 11.2C61.3749 11.52 61.4249 11.9433 61.4249 12.47C61.4249 13.0033 61.3816 13.4167 61.2949 13.71C61.1749 14.1367 60.9549 14.4733 60.6349 14.72C60.3216 14.96 59.9249 15.08 59.4449 15.08C59.1849 15.08 58.9449 15.03 58.7249 14.93C58.5049 14.8233 58.3216 14.6733 58.1749 14.48C58.1616 14.4667 58.1483 14.4633 58.1349 14.47C58.1283 14.47 58.1249 14.4767 58.1249 14.49V16.84C58.1249 16.9067 58.0916 16.94 58.0249 16.94H57.5149C57.4483 16.94 57.4149 16.9067 57.4149 16.84V10.04C57.4149 9.97333 57.4483 9.94 57.5149 9.94H58.0249C58.0916 9.94 58.1249 9.97333 58.1249 10.04V10.46C58.1249 10.4733 58.1283 10.4833 58.1349 10.49C58.1483 10.49 58.1616 10.4833 58.1749 10.47C58.3216 10.2767 58.5016 10.1267 58.7149 10.02C58.9349 9.91333 59.1783 9.86 59.4449 9.86C59.9116 9.86 60.3016 9.98 60.6149 10.22C60.9349 10.46 61.1549 10.7867 61.2749 11.2ZM60.4849 13.73C60.5583 13.5833 60.6116 13.42 60.6449 13.24C60.6849 13.0533 60.7049 12.7967 60.7049 12.47C60.7049 12.1567 60.6916 11.9133 60.6649 11.74C60.6383 11.56 60.5916 11.4 60.5249 11.26C60.4449 11.02 60.3016 10.83 60.0949 10.69C59.8949 10.55 59.6549 10.48 59.3749 10.48C59.1083 10.48 58.8849 10.55 58.7049 10.69C58.5249 10.83 58.3916 11.0167 58.3049 11.25C58.2449 11.3833 58.2016 11.54 58.1749 11.72C58.1483 11.9 58.1349 12.15 58.1349 12.47C58.1349 12.79 58.1483 13.0433 58.1749 13.23C58.2016 13.41 58.2483 13.57 58.3149 13.71C58.3949 13.9367 58.5249 14.12 58.7049 14.26C58.8916 14.3933 59.1116 14.46 59.3649 14.46C59.6316 14.46 59.8616 14.3933 60.0549 14.26C60.2549 14.1267 60.3983 13.95 60.4849 13.73ZM64.7241 15.08C64.2441 15.08 63.8308 14.9567 63.4841 14.71C63.1375 14.4633 62.8975 14.1233 62.7641 13.69C62.6708 13.3833 62.6241 12.9733 62.6241 12.46C62.6241 11.9467 62.6708 11.54 62.7641 11.24C62.8908 10.8133 63.1275 10.4767 63.4741 10.23C63.8208 9.98333 64.2408 9.86 64.7341 9.86C65.2075 9.86 65.6141 9.98333 65.9541 10.23C66.3008 10.4767 66.5375 10.81 66.6641 11.23C66.7575 11.5167 66.8041 11.9267 66.8041 12.46C66.8041 13 66.7575 13.41 66.6641 13.69C66.5375 14.1233 66.3008 14.4633 65.9541 14.71C65.6141 14.9567 65.2041 15.08 64.7241 15.08ZM64.7241 14.46C65.0441 14.46 65.3175 14.3733 65.5441 14.2C65.7708 14.02 65.9241 13.78 66.0041 13.48C66.0641 13.24 66.0941 12.9033 66.0941 12.47C66.0941 12.03 66.0675 11.6933 66.0141 11.46C65.9341 11.16 65.7775 10.9233 65.5441 10.75C65.3175 10.57 65.0408 10.48 64.7141 10.48C64.3875 10.48 64.1108 10.57 63.8841 10.75C63.6575 10.9233 63.5041 11.16 63.4241 11.46C63.3708 11.6933 63.3441 12.03 63.3441 12.47C63.3441 12.91 63.3708 13.2467 63.4241 13.48C63.4975 13.78 63.6475 14.02 63.8741 14.2C64.1075 14.3733 64.3908 14.46 64.7241 14.46ZM70.3434 9.87C70.8767 9.87 71.3 10.0267 71.6134 10.34C71.9334 10.6533 72.0934 11.0733 72.0934 11.6V14.9C72.0934 14.9667 72.06 15 71.9934 15H71.4834C71.4167 15 71.3834 14.9667 71.3834 14.9V11.74C71.3834 11.3733 71.27 11.0733 71.0434 10.84C70.8234 10.6067 70.5367 10.49 70.1834 10.49C69.8167 10.49 69.52 10.6033 69.2934 10.83C69.0667 11.0567 68.9534 11.3533 68.9534 11.72V14.9C68.9534 14.9667 68.92 15 68.8534 15H68.3434C68.2767 15 68.2434 14.9667 68.2434 14.9V10.04C68.2434 9.97333 68.2767 9.94 68.3434 9.94H68.8534C68.92 9.94 68.9534 9.97333 68.9534 10.04V10.47C68.9534 10.4833 68.9567 10.4933 68.9634 10.5C68.9767 10.5067 68.9867 10.5033 68.9934 10.49C69.2867 10.0767 69.7367 9.87 70.3434 9.87ZM74.114 9.02C73.954 9.02 73.8207 8.96667 73.714 8.86C73.6073 8.75333 73.554 8.62 73.554 8.46C73.554 8.29333 73.6073 8.16 73.714 8.06C73.8207 7.95333 73.954 7.9 74.114 7.9C74.274 7.9 74.4073 7.95333 74.514 8.06C74.6207 8.16 74.674 8.29333 74.674 8.46C74.674 8.62 74.6207 8.75333 74.514 8.86C74.4073 8.96667 74.274 9.02 74.114 9.02ZM73.834 14.99C73.7673 14.99 73.734 14.9567 73.734 14.89V10.03C73.734 9.96333 73.7673 9.93 73.834 9.93H74.344C74.4107 9.93 74.444 9.96333 74.444 10.03V14.89C74.444 14.9567 74.4107 14.99 74.344 14.99H73.834ZM80.0728 11.23C80.1528 11.53 80.1928 11.9433 80.1928 12.47C80.1928 13.0167 80.1461 13.44 80.0528 13.74C79.9261 14.1533 79.7061 14.48 79.3928 14.72C79.0795 14.96 78.6895 15.08 78.2228 15.08C77.9561 15.08 77.7128 15.0267 77.4928 14.92C77.2728 14.8133 77.0895 14.66 76.9428 14.46C76.9361 14.4467 76.9261 14.4433 76.9128 14.45C76.8995 14.45 76.8928 14.4567 76.8928 14.47V14.9C76.8928 14.9667 76.8595 15 76.7928 15H76.2828C76.2161 15 76.1828 14.9667 76.1828 14.9V8.1C76.1828 8.03333 76.2161 8 76.2828 8H76.7928C76.8595 8 76.8928 8.03333 76.8928 8.1V10.46C76.8928 10.4733 76.8961 10.4833 76.9028 10.49C76.9161 10.49 76.9295 10.4833 76.9428 10.47C77.0895 10.2767 77.2728 10.1267 77.4928 10.02C77.7128 9.91333 77.9561 9.86 78.2228 9.86C78.6961 9.86 79.0928 9.98333 79.4128 10.23C79.7328 10.47 79.9528 10.8033 80.0728 11.23ZM79.3028 13.68C79.3695 13.54 79.4161 13.3833 79.4428 13.21C79.4695 13.03 79.4828 12.7833 79.4828 12.47C79.4828 12.1433 79.4628 11.89 79.4228 11.71C79.3895 11.5233 79.3328 11.3567 79.2528 11.21C79.1661 10.99 79.0261 10.8133 78.8328 10.68C78.6395 10.5467 78.4095 10.48 78.1428 10.48C77.8895 10.48 77.6695 10.55 77.4828 10.69C77.3028 10.8233 77.1728 11.0033 77.0928 11.23C77.0261 11.37 76.9761 11.53 76.9428 11.71C76.9161 11.89 76.9028 12.1433 76.9028 12.47C76.9028 12.79 76.9161 13.04 76.9428 13.22C76.9761 13.3933 77.0228 13.55 77.0828 13.69C77.1695 13.9233 77.3028 14.11 77.4828 14.25C77.6628 14.39 77.8861 14.46 78.1528 14.46C78.4328 14.46 78.6728 14.39 78.8728 14.25C79.0795 14.11 79.2228 13.92 79.3028 13.68ZM81.7418 15C81.6751 15 81.6418 14.9667 81.6418 14.9V8.1C81.6418 8.03333 81.6751 8 81.7418 8H82.2518C82.3185 8 82.3518 8.03333 82.3518 8.1V14.9C82.3518 14.9667 82.3185 15 82.2518 15H81.7418ZM87.8265 11.62C87.8532 11.8067 87.8665 12.04 87.8665 12.32V12.64C87.8665 12.7067 87.8332 12.74 87.7665 12.74H84.5365C84.5098 12.74 84.4965 12.7533 84.4965 12.78C84.5098 13.1467 84.5298 13.3833 84.5565 13.49C84.6298 13.79 84.7865 14.0267 85.0265 14.2C85.2665 14.3733 85.5732 14.46 85.9465 14.46C86.2265 14.46 86.4732 14.3967 86.6865 14.27C86.8998 14.1433 87.0665 13.9633 87.1865 13.73C87.2265 13.67 87.2732 13.6567 87.3265 13.69L87.7165 13.92C87.7698 13.9533 87.7832 14 87.7565 14.06C87.5898 14.38 87.3398 14.6333 87.0065 14.82C86.6732 15 86.2898 15.09 85.8565 15.09C85.3832 15.0833 84.9865 14.97 84.6665 14.75C84.3465 14.53 84.1165 14.2233 83.9765 13.83C83.8565 13.51 83.7965 13.05 83.7965 12.45C83.7965 12.17 83.7998 11.9433 83.8065 11.77C83.8198 11.59 83.8465 11.43 83.8865 11.29C83.9998 10.8567 84.2265 10.51 84.5665 10.25C84.9132 9.99 85.3298 9.86 85.8165 9.86C86.4232 9.86 86.8898 10.0133 87.2165 10.32C87.5432 10.6267 87.7465 11.06 87.8265 11.62ZM85.8165 10.48C85.4898 10.48 85.2165 10.5667 84.9965 10.74C84.7832 10.9067 84.6432 11.1333 84.5765 11.42C84.5365 11.56 84.5098 11.7867 84.4965 12.1C84.4965 12.1267 84.5098 12.14 84.5365 12.14H87.1265C87.1532 12.14 87.1665 12.1267 87.1665 12.1C87.1532 11.8 87.1332 11.5867 87.1065 11.46C87.0332 11.16 86.8832 10.9233 86.6565 10.75C86.4365 10.57 86.1565 10.48 85.8165 10.48ZM95.1605 11.62C95.1871 11.8067 95.2005 12.04 95.2005 12.32V12.64C95.2005 12.7067 95.1671 12.74 95.1005 12.74H91.8705C91.8438 12.74 91.8305 12.7533 91.8305 12.78C91.8438 13.1467 91.8638 13.3833 91.8905 13.49C91.9638 13.79 92.1205 14.0267 92.3605 14.2C92.6005 14.3733 92.9071 14.46 93.2805 14.46C93.5605 14.46 93.8071 14.3967 94.0205 14.27C94.2338 14.1433 94.4005 13.9633 94.5205 13.73C94.5605 13.67 94.6071 13.6567 94.6605 13.69L95.0505 13.92C95.1038 13.9533 95.1171 14 95.0905 14.06C94.9238 14.38 94.6738 14.6333 94.3405 14.82C94.0071 15 93.6238 15.09 93.1905 15.09C92.7171 15.0833 92.3205 14.97 92.0005 14.75C91.6805 14.53 91.4505 14.2233 91.3105 13.83C91.1905 13.51 91.1305 13.05 91.1305 12.45C91.1305 12.17 91.1338 11.9433 91.1405 11.77C91.1538 11.59 91.1805 11.43 91.2205 11.29C91.3338 10.8567 91.5605 10.51 91.9005 10.25C92.2471 9.99 92.6638 9.86 93.1505 9.86C93.7571 9.86 94.2238 10.0133 94.5505 10.32C94.8771 10.6267 95.0805 11.06 95.1605 11.62ZM93.1505 10.48C92.8238 10.48 92.5505 10.5667 92.3305 10.74C92.1171 10.9067 91.9771 11.1333 91.9105 11.42C91.8705 11.56 91.8438 11.7867 91.8305 12.1C91.8305 12.1267 91.8438 12.14 91.8705 12.14H94.4605C94.4871 12.14 94.5005 12.1267 94.5005 12.1C94.4871 11.8 94.4671 11.5867 94.4405 11.46C94.3671 11.16 94.2171 10.9233 93.9905 10.75C93.7705 10.57 93.4905 10.48 93.1505 10.48ZM98.7125 9.87C99.2458 9.87 99.6692 10.0267 99.9825 10.34C100.303 10.6533 100.463 11.0733 100.463 11.6V14.9C100.463 14.9667 100.429 15 100.363 15H99.8525C99.7858 15 99.7525 14.9667 99.7525 14.9V11.74C99.7525 11.3733 99.6392 11.0733 99.4125 10.84C99.1925 10.6067 98.9058 10.49 98.5525 10.49C98.1858 10.49 97.8892 10.6033 97.6625 10.83C97.4358 11.0567 97.3225 11.3533 97.3225 11.72V14.9C97.3225 14.9667 97.2892 15 97.2225 15H96.7125C96.6458 15 96.6125 14.9667 96.6125 14.9V10.04C96.6125 9.97333 96.6458 9.94 96.7125 9.94H97.2225C97.2892 9.94 97.3225 9.97333 97.3225 10.04V10.47C97.3225 10.4833 97.3258 10.4933 97.3325 10.5C97.3458 10.5067 97.3558 10.5033 97.3625 10.49C97.6558 10.0767 98.1058 9.87 98.7125 9.87Z" fill="#6439FF"/>
</svg>
